<svg xmlns="http://www.w3.org/2000/svg" width="231" height="28" fill="none"><path fill="#0F4554" d="M139.899 7.78c-.841 0-1.494.161-1.955.478-.466.317-.696.795-.696 1.429 0 .585.336 1.096 1.008 1.54.673.444 1.573.865 2.691 1.264.911.317 1.689.68 2.338 1.09.65.41 1.185.973 1.615 1.689.431.72.646 1.626.646 2.73a4.81 4.81 0 0 1-.775 2.64c-.516.81-1.274 1.455-2.272 1.929-.997.477-2.19.712-3.57.712-1.154 0-2.303-.164-3.441-.488a10.815 10.815 0 0 1-3.176-1.492l1.682-2.831a9.4 9.4 0 0 0 2.284 1.152c.856.303 1.627.452 2.311.452.805 0 1.505-.164 2.1-.489.594-.324.891-.854.891-1.589 0-.95-.938-1.779-2.807-2.48-1.103-.418-2.022-.817-2.757-1.2-.735-.385-1.369-.937-1.905-1.653-.535-.716-.801-1.619-.801-2.704 0-1.585.547-2.865 1.642-3.83 1.095-.97 2.55-1.496 4.372-1.578 1.435 0 2.636.153 3.598.462.962.31 1.9.746 2.807 1.317l-1.443 2.778c-1.681-.883-3.144-1.327-4.383-1.327h-.004ZM152.555 4.648v18.433h-3.809V4.648h3.809ZM166.922 23.084l-4.071-5.859h-2.546v5.86h-3.809V4.651h5.858c2.397 0 4.259.556 5.58 1.668 1.322 1.111 1.983 2.625 1.983 4.546 0 1.134-.25 2.2-.747 3.193-.5.992-1.267 1.775-2.299 2.342l4.489 6.687h-4.438v-.004Zm-6.621-9.368h2.706c1.032 0 1.787-.288 2.26-.866.474-.574.708-1.197.708-1.865 0-.667-.203-1.305-.602-1.917-.403-.608-1.181-.913-2.339-.913h-2.729v5.56h-.004ZM173.47 9.208c.884-1.454 2.084-2.607 3.598-3.468a9.785 9.785 0 0 1 4.923-1.29c1.768 0 3.41.428 4.924 1.29a10.067 10.067 0 0 1 3.625 3.468c.903 1.451 1.353 3.014 1.353 4.685 0 1.67-.45 3.27-1.353 4.707a9.908 9.908 0 0 1-3.625 3.42 9.959 9.959 0 0 1-4.924 1.264c-1.767 0-3.429-.421-4.935-1.264-1.505-.843-2.702-1.98-3.586-3.42a8.81 8.81 0 0 1-1.325-4.707c0-1.7.441-3.23 1.325-4.685Zm3.414 7.639a5.86 5.86 0 0 0 2.178 2.14c.919.527 1.94.791 3.058.791 1.119 0 2.073-.26 2.968-.79a5.698 5.698 0 0 0 2.1-2.13c.509-.892.763-1.884.763-2.969s-.262-2.103-.79-3.006a5.843 5.843 0 0 0-2.139-2.14c-.903-.527-1.905-.788-3.007-.788-1.103 0-2.104.261-3.008.787a5.814 5.814 0 0 0-2.139 2.14c-.524.904-.786 1.903-.786 3.007s.266 2.055.802 2.954v.004ZM207.331 22.706c-1.068.384-2.233.574-3.492.574-2.014 0-3.766-.418-5.252-1.253-1.486-.835-2.624-1.958-3.414-3.368-.786-1.41-1.181-2.958-1.181-4.647 0-1.854.395-3.506 1.181-4.96a8.48 8.48 0 0 1 3.308-3.395c1.42-.81 3.055-1.216 4.912-1.216 1.173 0 2.26.15 3.257.452.998.302 1.874.675 2.624 1.126l-1.497 3.431c-1.385-1.003-2.8-1.503-4.255-1.503-.981 0-1.9.258-2.757.776a5.768 5.768 0 0 0-2.049 2.115c-.508.895-.762 1.883-.762 2.969 0 1.186.234 2.226.707 3.118a5.135 5.135 0 0 0 2.022 2.092c.876.5 1.901.75 3.074.75.946 0 1.795-.146 2.545-.44.751-.291 1.35-.638 1.788-1.041l1.576 3.256c-.489.384-1.271.768-2.339 1.152l.004.012ZM212.119 9.208c.883-1.454 2.084-2.607 3.597-3.468a9.788 9.788 0 0 1 4.924-1.29c1.767 0 3.41.428 4.923 1.29a10.06 10.06 0 0 1 3.625 3.468c.903 1.455 1.353 3.014 1.353 4.685 0 1.67-.45 3.27-1.353 4.707a9.9 9.9 0 0 1-3.625 3.42 9.955 9.955 0 0 1-4.923 1.264c-1.768 0-3.434-.421-4.935-1.264-1.506-.843-2.703-1.98-3.586-3.42a8.812 8.812 0 0 1-1.326-4.707c0-1.7.442-3.23 1.326-4.685Zm3.414 7.639a5.852 5.852 0 0 0 2.178 2.14c.919.527 1.939.791 3.058.791 1.118 0 2.072-.26 2.968-.79a5.713 5.713 0 0 0 2.1-2.13c.508-.892.762-1.884.762-2.969s-.262-2.103-.786-3.006a5.836 5.836 0 0 0-2.139-2.14c-.903-.527-1.904-.788-3.007-.788-1.103 0-2.104.261-3.007.787a5.806 5.806 0 0 0-2.139 2.14c-.524.904-.786 1.903-.786 3.007s.266 2.055.801 2.954l-.003.004ZM15.27 22.169c-.762.325-1.603.593-2.522.802-.919.209-1.756.313-2.506.313-2.05 0-3.848-.38-5.397-1.141-1.548-.761-2.745-1.813-3.586-3.155C.42 17.645 0 16.112 0 14.393c0-2.156.446-3.98 1.337-5.472.892-1.495 2.093-2.614 3.598-3.357 1.506-.742 3.168-1.115 4.99-1.115 1.173 0 2.276.123 3.308.377 1.032.25 1.944.574 2.73.977l-1.236 3.383c-.508-.269-1.204-.515-2.088-.739-.884-.223-1.623-.339-2.217-.339-2.1 0-3.708.5-4.818 1.503-1.11 1.003-1.666 2.488-1.666 4.457 0 1.134.27 2.126.813 2.969.544.843 1.299 1.492 2.272 1.94.97.45 2.077.674 3.32.674 1.244 0 2.073-.16 2.652-.477v-2.23H9.659v-3.506h7.195v7.787c-.297.302-.829.616-1.587.94l.004.004ZM30.566 23.084l-4.07-5.859H23.95v5.86h-3.81V4.651H26c2.397 0 4.258.556 5.58 1.668 1.322 1.111 1.983 2.625 1.983 4.546 0 1.134-.25 2.2-.747 3.193-.501.992-1.267 1.775-2.3 2.342l4.49 6.687h-4.439v-.004Zm-6.616-9.368h2.706c1.032 0 1.787-.288 2.26-.866.473-.574.708-1.197.708-1.865 0-.667-.204-1.305-.603-1.917-.402-.608-1.18-.913-2.338-.913h-2.73v5.56h-.003ZM41.59 17.948c.368.534.857.97 1.471 1.302a4.03 4.03 0 0 0 1.97.5 4.38 4.38 0 0 0 2.074-.5c.63-.332 1.126-.768 1.482-1.302.36-.533.54-1.092.54-1.678V4.648h3.753v11.697c0 1.32-.352 2.51-1.052 3.57-.7 1.058-1.65 1.886-2.85 2.48-1.2.592-2.519.887-3.954.887s-2.749-.295-3.938-.888-2.131-1.417-2.823-2.48c-.692-1.06-1.036-2.249-1.036-3.57V4.649h3.808V16.27c0 .586.184 1.145.552 1.678h.004ZM67.774 6.316c1.294 1.111 1.944 2.625 1.944 4.546a7.25 7.25 0 0 1-.67 3.092c-.445.959-1.172 1.75-2.177 2.369-1.005.619-2.307.924-3.899.924h-2.73v5.837h-3.808V4.652h5.858c2.361 0 4.192.556 5.486 1.668l-.004-.004Zm-3.097 6.937c.438-.31.75-.671.946-1.089.192-.418.29-.817.29-1.201 0-.653-.204-1.283-.603-1.891-.402-.608-1.18-.914-2.338-.914h-2.73v5.561h2.707c.719 0 1.294-.153 1.732-.462l-.004-.004ZM72.748 9.208c.883-1.454 2.084-2.607 3.597-3.468a9.785 9.785 0 0 1 4.924-1.29c1.767 0 3.41.428 4.923 1.29a10.06 10.06 0 0 1 3.625 3.468c.903 1.455 1.353 3.014 1.353 4.685 0 1.67-.45 3.27-1.353 4.707a9.9 9.9 0 0 1-3.625 3.42 9.956 9.956 0 0 1-4.923 1.264c-1.768 0-3.434-.421-4.936-1.264-1.505-.843-2.702-1.98-3.585-3.42a8.814 8.814 0 0 1-1.326-4.707c0-1.7.442-3.23 1.326-4.685Zm3.413 7.639a5.858 5.858 0 0 0 2.179 2.14c.918.527 1.94.791 3.058.791 1.118 0 2.072-.26 2.968-.79a5.704 5.704 0 0 0 2.1-2.13c.508-.892.762-1.884.762-2.969s-.262-2.103-.786-3.006a5.84 5.84 0 0 0-2.139-2.14c-.903-.527-1.904-.788-3.007-.788-1.103 0-2.104.261-3.007.787a5.811 5.811 0 0 0-2.14 2.14c-.523.904-.785 1.903-.785 3.007s.266 2.055.801 2.954l-.004.004Z"/><path fill="#F39500" d="m126.537 25.247-2.643 2.517-10.023-9.566-.528 8.69h-2.686l-.528-7.132 7.962-7.62 7.508.504v2.563l-9.061.5.004.007 9.995 9.537Z"/><path fill="#0F4554" d="M126.477 2.573 100.128 27.73l-2.64-2.525 10.027-9.566h.004l.011-.015-9.127-.5v-2.548l9.073-.5-.02-.018-9.995-9.537L100.104 0l10.023 9.563.528-8.153h2.655l.528 8.198.031-.026v-.015l9.968-9.511 2.64 2.517Z"/></svg>