<?xml version="1.0" encoding="utf-8"?>
<svg xmlns="http://www.w3.org/2000/svg" viewBox="0 0 500 500">
  <path style="stroke: rgb(0, 0, 0); fill: rgb(18, 240, 228);" d="M 99.878 57.856 L 426.918 54.202 C 426.918 54.202 222.29 202.192 222.29 202.801 C 222.29 203.41 389.16 232.643 389.16 232.643 C 389.16 232.643 219.245 436.663 218.636 436.663 C 218.027 436.663 257.613 327.04 247.868 318.514 C 238.123 309.988 101.096 229.598 101.705 225.335 C 102.314 221.072 239.951 136.419 239.951 134.592 C 239.951 132.765 101.705 59.683 99.878 57.856 Z"/>
  <g>
    <ellipse style="fill: rgb(255, 252, 252);" cx="176.918" cy="174.178" rx="40.499" ry="25.579"/>
    <ellipse style="fill: rgb(255, 255, 255);" cx="214.373" cy="166.261" rx="29.842" ry="24.361"/>
    <ellipse style="fill: rgb(255, 255, 255);" cx="228.076" cy="195.798" rx="35.018" ry="16.139"/>
    <ellipse style="fill: rgb(255, 255, 255);" cx="258.831" cy="178.745" rx="27.406" ry="19.184"/>
  </g>
  <g transform="matrix(1, 0, 0, 1, 57.246925, 134.591873)">
    <ellipse style="fill: rgb(255, 252, 252);" cx="176.918" cy="174.178" rx="40.499" ry="25.579"/>
    <ellipse style="fill: rgb(255, 255, 255);" cx="214.373" cy="166.261" rx="29.842" ry="24.361"/>
    <ellipse style="fill: rgb(255, 255, 255);" cx="228.076" cy="195.798" rx="35.018" ry="16.139"/>
    <ellipse style="fill: rgb(255, 255, 255);" cx="258.831" cy="178.745" rx="27.406" ry="19.184"/>
  </g>
</svg>